<?xml version="1.0" standalone="no"?>
<!DOCTYPE svg PUBLIC "-//W3C//DTD SVG 20010904//EN"
 "http://www.w3.org/TR/2001/REC-SVG-20010904/DTD/svg10.dtd">
<svg version="1.0" xmlns="http://www.w3.org/2000/svg"
 width="334.000000pt" height="334.000000pt" viewBox="0 0 334.000000 334.000000"
 preserveAspectRatio="xMidYMid meet">
<metadata>
Created by potrace 1.14, written by Peter Selinger 2001-2017
</metadata>
<g transform="translate(0.000000,334.000000) scale(0.100000,-0.100000)"
fill="#000000" stroke="none">
<path d="M1745 3333 c-65 -8 -201 -46 -263 -74 -248 -112 -408 -348 -429 -632
l-6 -88 -74 134 -73 134 12 51 c15 69 0 119 -51 165 -72 65 -159 62 -227 -7
-46 -45 -61 -91 -50 -151 13 -66 94 -135 160 -135 20 0 30 -9 45 -39 l20 -38
-24 -11 c-14 -6 -27 -22 -30 -34 -3 -13 -4 -385 -3 -828 l3 -804 36 -9 c20 -5
51 -4 70 0 l34 9 5 750 5 749 137 -245 c555 -993 655 -1166 706 -1218 l52 -53
0 -480 0 -479 75 0 75 0 0 393 c0 215 4 397 8 403 6 9 266 162 319 188 13 6
23 14 23 19 0 4 5 7 11 7 6 0 48 21 93 47 44 27 94 55 109 63 37 18 50 44 54
103 2 36 0 46 -10 41 -9 -6 -9 -4 -1 7 15 19 16 161 0 152 -8 -5 -8 -3 1 8 6
8 11 39 11 69 0 95 1 100 26 111 34 16 43 43 43 136 1 68 -3 87 -19 109 -11
14 -26 23 -33 20 -7 -2 -16 -2 -19 2 -4 3 -18 8 -32 10 -19 2 -24 -1 -18 -10
6 -10 5 -10 -7 -1 -8 6 -35 10 -64 7 -39 -2 -55 -9 -73 -30 -20 -23 -23 -35
-21 -115 2 -92 10 -113 54 -136 19 -11 20 -21 19 -194 0 -132 -4 -184 -12
-187 -7 -2 -19 -10 -27 -19 -8 -8 -15 -12 -15 -9 0 3 -15 -3 -32 -13 -18 -10
-112 -63 -208 -118 l-175 -101 -3 282 c-2 154 0 512 4 794 l6 512 44 0 c24 0
44 2 44 5 0 3 -37 68 -81 146 -66 113 -84 138 -94 127 -7 -7 -46 -73 -88 -145
l-76 -133 45 0 44 0 -2 -187 -3 -188 -252 -3 c-286 -3 -268 -8 -303 85 -34 89
-50 179 -50 278 0 321 198 553 530 621 115 23 333 15 440 -16 182 -53 321
-160 397 -306 113 -218 92 -482 -57 -719 l-44 -68 23 -18 c14 -12 39 -19 63
-19 51 0 89 38 136 133 101 205 113 498 29 707 -101 248 -330 424 -619 474
-74 13 -268 18 -343 9z m55 -1730 c0 -229 -2 -414 -4 -412 -2 2 -54 96 -116
209 -62 113 -164 296 -226 407 -63 111 -114 204 -114 207 0 3 104 6 230 6
l230 0 0 -417z"/>
</g>
</svg>
